<?xml version="1.0" encoding="iso-8859-1"?>
<!-- Generator: Adobe Illustrator 18.1.1, SVG Export Plug-In . SVG Version: 6.00 Build 0)  -->
<svg version="1.1" id="Capa_1" xmlns="http://www.w3.org/2000/svg" xmlns:xlink="http://www.w3.org/1999/xlink" x="0px" y="0px"
	 viewBox="0 0 15 15" style="enable-background:new 0 0 15 15;" xml:space="preserve">
<g>
	<g>
		<g>
			<path style="fill:#010002;" d="M7.5,0C3.358,0,0,3.358,0,7.5C0,11.643,3.358,15,7.5,15c4.143,0,7.5-3.357,7.5-7.5
				C15,3.358,11.643,0,7.5,0z M7.5,14C3.916,14,1,11.084,1,7.5S3.916,1,7.5,1S14,3.916,14,7.5S11.084,14,7.5,14z"/>
			<path style="fill:#010002;" d="M10.816,7.173L6.96,4.118c-0.217-0.17-0.569-0.17-0.786,0L6.169,4.123
				C6.065,4.202,6,4.312,6,4.435v6.11c0,0.125,0.069,0.236,0.176,0.314l-0.002,0.002c0.217,0.171,0.569,0.171,0.786,0l3.877-3.062
				c0.218-0.17,0.218-0.447,0-0.617L10.816,7.173z"/>
		</g>
	</g>
</g>
<g>
</g>
<g>
</g>
<g>
</g>
<g>
</g>
<g>
</g>
<g>
</g>
<g>
</g>
<g>
</g>
<g>
</g>
<g>
</g>
<g>
</g>
<g>
</g>
<g>
</g>
<g>
</g>
<g>
</g>
</svg>
